<svg width="300" height="300" viewBox="0 0 16 16" fill="none" xmlns="http://www.w3.org/2000/svg">
<g id="money-bill-wave-light-U0xF00B0">
<path id="Icon" fill-rule="evenodd" clip-rule="evenodd" d="M0 12.8195V4.25006C0 3.57756 0.705 3.13145 1.34306 3.30673C3.56111 3.89173 5.78056 3.35034 8 2.78478C10.4139 2.1695 12.8278 1.55423 15.2417 2.45173C15.7167 2.62784 16 3.11006 16 3.62506V12.1695C16 12.8667 15.2944 13.3139 14.6583 13.1139C12.4442 12.5292 10.2301 13.0918 8.01601 13.6543L8 13.6584C5.58611 14.2751 3.17222 14.8889 0.758056 13.9917C0.283611 13.8167 0 13.3334 0 12.8195ZM5.77778 8.22228C5.77778 6.72506 6.77222 5.55562 8 5.55562C9.22778 5.55562 10.2222 6.72506 10.2222 8.22228C10.2222 9.6945 9.22778 10.8889 8 10.8889C6.77222 10.8889 5.77778 9.6945 5.77778 8.22228ZM12.9028 11.5473C11.0722 11.4973 9.30833 11.9473 7.75556 12.3445C7.72205 12.3532 7.68874 12.362 7.65562 12.3707C7.56242 12.3951 7.47073 12.4192 7.38056 12.4417C5.8 12.8417 4.39167 13.1556 3.11111 13.1084C3.10833 12.1278 2.31389 11.3334 1.33333 11.3334V6.4445C2.23694 6.4445 2.98333 5.7695 3.09722 4.89728C4.92778 4.94728 6.69167 4.49728 8.24444 4.10006C8.27797 4.09131 8.31131 4.08257 8.34445 4.07387C8.43763 4.04943 8.52929 4.02538 8.61944 4.00284C10.2 3.60173 11.5833 3.29006 12.8889 3.33728C12.8917 4.31673 13.6861 5.11117 14.6667 5.11117V10.0001C13.7639 10.0001 13.0167 10.6751 12.9028 11.5473Z" fill="green"/>
</g>
</svg>
